<mxfile host="app.diagrams.net" modified="2021-12-05T14:10:37.151Z" agent="5.0 (Macintosh; Intel Mac OS X 10_15_7) AppleWebKit/537.36 (KHTML, like Gecko) Chrome/96.0.4664.55 Safari/537.36" etag="fPDlJofgSFa00ZOKvKfc" version="15.9.1" type="github">
  <diagram id="C5RBs43oDa-KdzZeNtuy" name="Page-1">
    <mxGraphModel dx="861" dy="1891" grid="1" gridSize="10" guides="1" tooltips="1" connect="1" arrows="1" fold="1" page="1" pageScale="1" pageWidth="827" pageHeight="1169" math="0" shadow="0">
      <root>
        <mxCell id="WIyWlLk6GJQsqaUBKTNV-0" />
        <mxCell id="WIyWlLk6GJQsqaUBKTNV-1" parent="WIyWlLk6GJQsqaUBKTNV-0" />
        <mxCell id="6CTahP-xQMubhzLMzYpt-114" style="edgeStyle=entityRelationEdgeStyle;rounded=0;orthogonalLoop=1;jettySize=auto;html=1;entryX=0;entryY=0.5;entryDx=0;entryDy=0;fontSize=13;startArrow=none;startFill=0;endArrow=none;endFill=0;endSize=12;" edge="1" parent="WIyWlLk6GJQsqaUBKTNV-1" source="6CTahP-xQMubhzLMzYpt-0" target="6CTahP-xQMubhzLMzYpt-108">
          <mxGeometry relative="1" as="geometry" />
        </mxCell>
        <mxCell id="6CTahP-xQMubhzLMzYpt-115" style="edgeStyle=entityRelationEdgeStyle;rounded=0;orthogonalLoop=1;jettySize=auto;html=1;entryX=0.5;entryY=0;entryDx=0;entryDy=0;fontSize=13;startArrow=none;startFill=0;endArrow=none;endFill=0;endSize=12;" edge="1" parent="WIyWlLk6GJQsqaUBKTNV-1" source="6CTahP-xQMubhzLMzYpt-0" target="6CTahP-xQMubhzLMzYpt-110">
          <mxGeometry relative="1" as="geometry" />
        </mxCell>
        <mxCell id="6CTahP-xQMubhzLMzYpt-0" value="Account" style="swimlane;fontStyle=0;childLayout=stackLayout;horizontal=1;startSize=26;fillColor=none;horizontalStack=0;resizeParent=1;resizeParentMax=0;resizeLast=0;collapsible=1;marginBottom=0;" vertex="1" parent="WIyWlLk6GJQsqaUBKTNV-1">
          <mxGeometry x="900" y="140" width="140" height="156" as="geometry">
            <mxRectangle x="1020" y="120" width="80" height="26" as="alternateBounds" />
          </mxGeometry>
        </mxCell>
        <mxCell id="6CTahP-xQMubhzLMzYpt-1" value="+ name: String" style="text;strokeColor=none;fillColor=none;align=left;verticalAlign=top;spacingLeft=4;spacingRight=4;overflow=hidden;rotatable=0;points=[[0,0.5],[1,0.5]];portConstraint=eastwest;" vertex="1" parent="6CTahP-xQMubhzLMzYpt-0">
          <mxGeometry y="26" width="140" height="26" as="geometry" />
        </mxCell>
        <mxCell id="6CTahP-xQMubhzLMzYpt-2" value="+ surname: String" style="text;strokeColor=none;fillColor=none;align=left;verticalAlign=top;spacingLeft=4;spacingRight=4;overflow=hidden;rotatable=0;points=[[0,0.5],[1,0.5]];portConstraint=eastwest;" vertex="1" parent="6CTahP-xQMubhzLMzYpt-0">
          <mxGeometry y="52" width="140" height="26" as="geometry" />
        </mxCell>
        <mxCell id="6CTahP-xQMubhzLMzYpt-3" value="+ status: AccountStatus" style="text;strokeColor=none;fillColor=none;align=left;verticalAlign=top;spacingLeft=4;spacingRight=4;overflow=hidden;rotatable=0;points=[[0,0.5],[1,0.5]];portConstraint=eastwest;" vertex="1" parent="6CTahP-xQMubhzLMzYpt-0">
          <mxGeometry y="78" width="140" height="26" as="geometry" />
        </mxCell>
        <mxCell id="6CTahP-xQMubhzLMzYpt-15" value="+ address: Address" style="text;strokeColor=none;fillColor=none;align=left;verticalAlign=top;spacingLeft=4;spacingRight=4;overflow=hidden;rotatable=0;points=[[0,0.5],[1,0.5]];portConstraint=eastwest;" vertex="1" parent="6CTahP-xQMubhzLMzYpt-0">
          <mxGeometry y="104" width="140" height="26" as="geometry" />
        </mxCell>
        <mxCell id="6CTahP-xQMubhzLMzYpt-16" value="+ email: String" style="text;strokeColor=none;fillColor=none;align=left;verticalAlign=top;spacingLeft=4;spacingRight=4;overflow=hidden;rotatable=0;points=[[0,0.5],[1,0.5]];portConstraint=eastwest;" vertex="1" parent="6CTahP-xQMubhzLMzYpt-0">
          <mxGeometry y="130" width="140" height="26" as="geometry" />
        </mxCell>
        <mxCell id="6CTahP-xQMubhzLMzYpt-12" value="&lt;p style=&quot;margin: 0px ; margin-top: 4px ; text-align: center ; text-decoration: underline&quot;&gt;&lt;b&gt;AccountStatus&lt;/b&gt;&lt;/p&gt;&lt;hr&gt;&lt;p style=&quot;margin: 0px ; margin-left: 8px&quot;&gt;Active&lt;br&gt;Blocked&lt;br&gt;Banned&lt;/p&gt;" style="verticalAlign=top;align=left;overflow=fill;fontSize=12;fontFamily=Helvetica;html=1;" vertex="1" parent="WIyWlLk6GJQsqaUBKTNV-1">
          <mxGeometry x="840" y="-180" width="160" height="90" as="geometry" />
        </mxCell>
        <mxCell id="6CTahP-xQMubhzLMzYpt-13" style="edgeStyle=orthogonalEdgeStyle;rounded=0;orthogonalLoop=1;jettySize=auto;html=1;entryX=0;entryY=0.5;entryDx=0;entryDy=0;" edge="1" parent="WIyWlLk6GJQsqaUBKTNV-1" source="6CTahP-xQMubhzLMzYpt-3" target="6CTahP-xQMubhzLMzYpt-12">
          <mxGeometry relative="1" as="geometry" />
        </mxCell>
        <mxCell id="6CTahP-xQMubhzLMzYpt-17" value="Address" style="swimlane;fontStyle=0;childLayout=stackLayout;horizontal=1;startSize=26;fillColor=none;horizontalStack=0;resizeParent=1;resizeParentMax=0;resizeLast=0;collapsible=1;marginBottom=0;" vertex="1" parent="WIyWlLk6GJQsqaUBKTNV-1">
          <mxGeometry x="1060" y="-180" width="140" height="156" as="geometry" />
        </mxCell>
        <mxCell id="6CTahP-xQMubhzLMzYpt-18" value="+ street: String" style="text;strokeColor=none;fillColor=none;align=left;verticalAlign=top;spacingLeft=4;spacingRight=4;overflow=hidden;rotatable=0;points=[[0,0.5],[1,0.5]];portConstraint=eastwest;" vertex="1" parent="6CTahP-xQMubhzLMzYpt-17">
          <mxGeometry y="26" width="140" height="26" as="geometry" />
        </mxCell>
        <mxCell id="6CTahP-xQMubhzLMzYpt-19" value="+ city: String" style="text;strokeColor=none;fillColor=none;align=left;verticalAlign=top;spacingLeft=4;spacingRight=4;overflow=hidden;rotatable=0;points=[[0,0.5],[1,0.5]];portConstraint=eastwest;" vertex="1" parent="6CTahP-xQMubhzLMzYpt-17">
          <mxGeometry y="52" width="140" height="26" as="geometry" />
        </mxCell>
        <mxCell id="6CTahP-xQMubhzLMzYpt-20" value="+ state: String" style="text;strokeColor=none;fillColor=none;align=left;verticalAlign=top;spacingLeft=4;spacingRight=4;overflow=hidden;rotatable=0;points=[[0,0.5],[1,0.5]];portConstraint=eastwest;" vertex="1" parent="6CTahP-xQMubhzLMzYpt-17">
          <mxGeometry y="78" width="140" height="26" as="geometry" />
        </mxCell>
        <mxCell id="6CTahP-xQMubhzLMzYpt-21" value="+ country: String" style="text;strokeColor=none;fillColor=none;align=left;verticalAlign=top;spacingLeft=4;spacingRight=4;overflow=hidden;rotatable=0;points=[[0,0.5],[1,0.5]];portConstraint=eastwest;" vertex="1" parent="6CTahP-xQMubhzLMzYpt-17">
          <mxGeometry y="104" width="140" height="26" as="geometry" />
        </mxCell>
        <mxCell id="6CTahP-xQMubhzLMzYpt-22" value="+ zipcode: String" style="text;strokeColor=none;fillColor=none;align=left;verticalAlign=top;spacingLeft=4;spacingRight=4;overflow=hidden;rotatable=0;points=[[0,0.5],[1,0.5]];portConstraint=eastwest;" vertex="1" parent="6CTahP-xQMubhzLMzYpt-17">
          <mxGeometry y="130" width="140" height="26" as="geometry" />
        </mxCell>
        <mxCell id="6CTahP-xQMubhzLMzYpt-23" style="edgeStyle=orthogonalEdgeStyle;rounded=0;orthogonalLoop=1;jettySize=auto;html=1;" edge="1" parent="WIyWlLk6GJQsqaUBKTNV-1" source="6CTahP-xQMubhzLMzYpt-15" target="6CTahP-xQMubhzLMzYpt-17">
          <mxGeometry relative="1" as="geometry" />
        </mxCell>
        <mxCell id="6CTahP-xQMubhzLMzYpt-30" style="edgeStyle=orthogonalEdgeStyle;rounded=0;orthogonalLoop=1;jettySize=auto;html=1;endArrow=none;endFill=0;startArrow=diamondThin;startFill=1;" edge="1" parent="WIyWlLk6GJQsqaUBKTNV-1" source="6CTahP-xQMubhzLMzYpt-24" target="6CTahP-xQMubhzLMzYpt-0">
          <mxGeometry relative="1" as="geometry">
            <mxPoint x="1010" y="310" as="targetPoint" />
          </mxGeometry>
        </mxCell>
        <mxCell id="6CTahP-xQMubhzLMzYpt-24" value="Member" style="swimlane;fontStyle=0;childLayout=stackLayout;horizontal=1;startSize=26;fillColor=none;horizontalStack=0;resizeParent=1;resizeParentMax=0;resizeLast=0;collapsible=1;marginBottom=0;" vertex="1" parent="WIyWlLk6GJQsqaUBKTNV-1">
          <mxGeometry x="900" y="420" width="140" height="52" as="geometry" />
        </mxCell>
        <mxCell id="6CTahP-xQMubhzLMzYpt-25" value="placeOrder()" style="text;strokeColor=none;fillColor=none;align=left;verticalAlign=top;spacingLeft=4;spacingRight=4;overflow=hidden;rotatable=0;points=[[0,0.5],[1,0.5]];portConstraint=eastwest;" vertex="1" parent="6CTahP-xQMubhzLMzYpt-24">
          <mxGeometry y="26" width="140" height="26" as="geometry" />
        </mxCell>
        <mxCell id="6CTahP-xQMubhzLMzYpt-35" style="rounded=0;orthogonalLoop=1;jettySize=auto;html=1;startArrow=diamondThin;startFill=1;endArrow=none;endFill=0;exitX=0.5;exitY=0;exitDx=0;exitDy=0;" edge="1" parent="WIyWlLk6GJQsqaUBKTNV-1" source="6CTahP-xQMubhzLMzYpt-31" target="6CTahP-xQMubhzLMzYpt-16">
          <mxGeometry relative="1" as="geometry">
            <mxPoint x="970" y="310" as="targetPoint" />
          </mxGeometry>
        </mxCell>
        <mxCell id="6CTahP-xQMubhzLMzYpt-31" value="Admin" style="swimlane;fontStyle=0;childLayout=stackLayout;horizontal=1;startSize=26;fillColor=none;horizontalStack=0;resizeParent=1;resizeParentMax=0;resizeLast=0;collapsible=1;marginBottom=0;" vertex="1" parent="WIyWlLk6GJQsqaUBKTNV-1">
          <mxGeometry x="1080" y="420" width="170" height="104" as="geometry" />
        </mxCell>
        <mxCell id="6CTahP-xQMubhzLMzYpt-32" value="blockUser()" style="text;strokeColor=none;fillColor=none;align=left;verticalAlign=top;spacingLeft=4;spacingRight=4;overflow=hidden;rotatable=0;points=[[0,0.5],[1,0.5]];portConstraint=eastwest;" vertex="1" parent="6CTahP-xQMubhzLMzYpt-31">
          <mxGeometry y="26" width="170" height="26" as="geometry" />
        </mxCell>
        <mxCell id="6CTahP-xQMubhzLMzYpt-33" value="addNewProductCategory()" style="text;strokeColor=none;fillColor=none;align=left;verticalAlign=top;spacingLeft=4;spacingRight=4;overflow=hidden;rotatable=0;points=[[0,0.5],[1,0.5]];portConstraint=eastwest;" vertex="1" parent="6CTahP-xQMubhzLMzYpt-31">
          <mxGeometry y="52" width="170" height="26" as="geometry" />
        </mxCell>
        <mxCell id="6CTahP-xQMubhzLMzYpt-34" value="modifyProductCategory()" style="text;strokeColor=none;fillColor=none;align=left;verticalAlign=top;spacingLeft=4;spacingRight=4;overflow=hidden;rotatable=0;points=[[0,0.5],[1,0.5]];portConstraint=eastwest;" vertex="1" parent="6CTahP-xQMubhzLMzYpt-31">
          <mxGeometry y="78" width="170" height="26" as="geometry" />
        </mxCell>
        <mxCell id="6CTahP-xQMubhzLMzYpt-63" style="edgeStyle=orthogonalEdgeStyle;curved=1;rounded=0;orthogonalLoop=1;jettySize=auto;html=1;dashed=1;fontSize=13;startArrow=none;startFill=0;endArrow=open;endFill=0;" edge="1" parent="WIyWlLk6GJQsqaUBKTNV-1" source="6CTahP-xQMubhzLMzYpt-36" target="6CTahP-xQMubhzLMzYpt-60">
          <mxGeometry relative="1" as="geometry" />
        </mxCell>
        <mxCell id="6CTahP-xQMubhzLMzYpt-79" style="edgeStyle=orthogonalEdgeStyle;curved=1;rounded=0;orthogonalLoop=1;jettySize=auto;html=1;entryX=0.464;entryY=1;entryDx=0;entryDy=0;entryPerimeter=0;fontSize=13;startArrow=block;startFill=0;endArrow=none;endFill=0;" edge="1" parent="WIyWlLk6GJQsqaUBKTNV-1" source="6CTahP-xQMubhzLMzYpt-36" target="6CTahP-xQMubhzLMzYpt-25">
          <mxGeometry relative="1" as="geometry" />
        </mxCell>
        <mxCell id="6CTahP-xQMubhzLMzYpt-36" value="Customer" style="swimlane;fontStyle=0;childLayout=stackLayout;horizontal=1;startSize=26;fillColor=none;horizontalStack=0;resizeParent=1;resizeParentMax=0;resizeLast=0;collapsible=1;marginBottom=0;" vertex="1" parent="WIyWlLk6GJQsqaUBKTNV-1">
          <mxGeometry x="880" y="720" width="140" height="52" as="geometry" />
        </mxCell>
        <mxCell id="6CTahP-xQMubhzLMzYpt-37" value="getBasket(): Basket" style="text;strokeColor=none;fillColor=none;align=left;verticalAlign=top;spacingLeft=4;spacingRight=4;overflow=hidden;rotatable=0;points=[[0,0.5],[1,0.5]];portConstraint=eastwest;" vertex="1" parent="6CTahP-xQMubhzLMzYpt-36">
          <mxGeometry y="26" width="140" height="26" as="geometry" />
        </mxCell>
        <mxCell id="6CTahP-xQMubhzLMzYpt-68" style="edgeStyle=none;rounded=0;orthogonalLoop=1;jettySize=auto;html=1;entryX=0.482;entryY=0.974;entryDx=0;entryDy=0;entryPerimeter=0;fontSize=13;startArrow=none;startFill=0;endArrow=diamondThin;endFill=1;" edge="1" parent="WIyWlLk6GJQsqaUBKTNV-1" source="6CTahP-xQMubhzLMzYpt-38" target="6CTahP-xQMubhzLMzYpt-37">
          <mxGeometry relative="1" as="geometry" />
        </mxCell>
        <mxCell id="6CTahP-xQMubhzLMzYpt-38" value="Basket" style="swimlane;fontStyle=0;childLayout=stackLayout;horizontal=1;startSize=26;fillColor=none;horizontalStack=0;resizeParent=1;resizeParentMax=0;resizeLast=0;collapsible=1;marginBottom=0;" vertex="1" parent="WIyWlLk6GJQsqaUBKTNV-1">
          <mxGeometry x="750" y="868" width="140" height="130" as="geometry" />
        </mxCell>
        <mxCell id="6CTahP-xQMubhzLMzYpt-39" value="items: List&lt;Item&gt;" style="text;strokeColor=none;fillColor=none;align=left;verticalAlign=top;spacingLeft=4;spacingRight=4;overflow=hidden;rotatable=0;points=[[0,0.5],[1,0.5]];portConstraint=eastwest;" vertex="1" parent="6CTahP-xQMubhzLMzYpt-38">
          <mxGeometry y="26" width="140" height="26" as="geometry" />
        </mxCell>
        <mxCell id="6CTahP-xQMubhzLMzYpt-40" value="addItem()" style="text;strokeColor=none;fillColor=none;align=left;verticalAlign=top;spacingLeft=4;spacingRight=4;overflow=hidden;rotatable=0;points=[[0,0.5],[1,0.5]];portConstraint=eastwest;" vertex="1" parent="6CTahP-xQMubhzLMzYpt-38">
          <mxGeometry y="52" width="140" height="26" as="geometry" />
        </mxCell>
        <mxCell id="6CTahP-xQMubhzLMzYpt-41" value="removeItem()" style="text;strokeColor=none;fillColor=none;align=left;verticalAlign=top;spacingLeft=4;spacingRight=4;overflow=hidden;rotatable=0;points=[[0,0.5],[1,0.5]];portConstraint=eastwest;" vertex="1" parent="6CTahP-xQMubhzLMzYpt-38">
          <mxGeometry y="78" width="140" height="26" as="geometry" />
        </mxCell>
        <mxCell id="6CTahP-xQMubhzLMzYpt-42" value="getItems(): List&lt;Item&gt;" style="text;strokeColor=none;fillColor=none;align=left;verticalAlign=top;spacingLeft=4;spacingRight=4;overflow=hidden;rotatable=0;points=[[0,0.5],[1,0.5]];portConstraint=eastwest;" vertex="1" parent="6CTahP-xQMubhzLMzYpt-38">
          <mxGeometry y="104" width="140" height="26" as="geometry" />
        </mxCell>
        <mxCell id="6CTahP-xQMubhzLMzYpt-43" value="Item" style="swimlane;fontStyle=0;childLayout=stackLayout;horizontal=1;startSize=26;fillColor=none;horizontalStack=0;resizeParent=1;resizeParentMax=0;resizeLast=0;collapsible=1;marginBottom=0;" vertex="1" parent="WIyWlLk6GJQsqaUBKTNV-1">
          <mxGeometry x="990" y="821" width="140" height="130" as="geometry" />
        </mxCell>
        <mxCell id="6CTahP-xQMubhzLMzYpt-44" value="quantity: Int" style="text;strokeColor=none;fillColor=none;align=left;verticalAlign=top;spacingLeft=4;spacingRight=4;overflow=hidden;rotatable=0;points=[[0,0.5],[1,0.5]];portConstraint=eastwest;" vertex="1" parent="6CTahP-xQMubhzLMzYpt-43">
          <mxGeometry y="26" width="140" height="26" as="geometry" />
        </mxCell>
        <mxCell id="6CTahP-xQMubhzLMzYpt-45" value="price: Double" style="text;strokeColor=none;fillColor=none;align=left;verticalAlign=top;spacingLeft=4;spacingRight=4;overflow=hidden;rotatable=0;points=[[0,0.5],[1,0.5]];portConstraint=eastwest;" vertex="1" parent="6CTahP-xQMubhzLMzYpt-43">
          <mxGeometry y="52" width="140" height="26" as="geometry" />
        </mxCell>
        <mxCell id="6CTahP-xQMubhzLMzYpt-46" value="currency: String" style="text;strokeColor=none;fillColor=none;align=left;verticalAlign=top;spacingLeft=4;spacingRight=4;overflow=hidden;rotatable=0;points=[[0,0.5],[1,0.5]];portConstraint=eastwest;" vertex="1" parent="6CTahP-xQMubhzLMzYpt-43">
          <mxGeometry y="78" width="140" height="26" as="geometry" />
        </mxCell>
        <mxCell id="6CTahP-xQMubhzLMzYpt-47" value="updateQuantity()" style="text;strokeColor=none;fillColor=none;align=left;verticalAlign=top;spacingLeft=4;spacingRight=4;overflow=hidden;rotatable=0;points=[[0,0.5],[1,0.5]];portConstraint=eastwest;" vertex="1" parent="6CTahP-xQMubhzLMzYpt-43">
          <mxGeometry y="104" width="140" height="26" as="geometry" />
        </mxCell>
        <mxCell id="6CTahP-xQMubhzLMzYpt-77" style="edgeStyle=orthogonalEdgeStyle;curved=1;rounded=0;orthogonalLoop=1;jettySize=auto;html=1;entryX=0;entryY=0.5;entryDx=0;entryDy=0;fontSize=13;startArrow=none;startFill=0;endArrow=none;endFill=0;" edge="1" parent="WIyWlLk6GJQsqaUBKTNV-1" source="6CTahP-xQMubhzLMzYpt-48" target="6CTahP-xQMubhzLMzYpt-74">
          <mxGeometry relative="1" as="geometry" />
        </mxCell>
        <mxCell id="6CTahP-xQMubhzLMzYpt-48" value="Product" style="swimlane;fontStyle=0;childLayout=stackLayout;horizontal=1;startSize=26;fillColor=none;horizontalStack=0;resizeParent=1;resizeParentMax=0;resizeLast=0;collapsible=1;marginBottom=0;" vertex="1" parent="WIyWlLk6GJQsqaUBKTNV-1">
          <mxGeometry x="950" y="1060" width="200" height="182" as="geometry" />
        </mxCell>
        <mxCell id="6CTahP-xQMubhzLMzYpt-49" value="name: String" style="text;strokeColor=none;fillColor=none;align=left;verticalAlign=top;spacingLeft=4;spacingRight=4;overflow=hidden;rotatable=0;points=[[0,0.5],[1,0.5]];portConstraint=eastwest;" vertex="1" parent="6CTahP-xQMubhzLMzYpt-48">
          <mxGeometry y="26" width="200" height="26" as="geometry" />
        </mxCell>
        <mxCell id="6CTahP-xQMubhzLMzYpt-50" value="description: String" style="text;strokeColor=none;fillColor=none;align=left;verticalAlign=top;spacingLeft=4;spacingRight=4;overflow=hidden;rotatable=0;points=[[0,0.5],[1,0.5]];portConstraint=eastwest;" vertex="1" parent="6CTahP-xQMubhzLMzYpt-48">
          <mxGeometry y="52" width="200" height="26" as="geometry" />
        </mxCell>
        <mxCell id="6CTahP-xQMubhzLMzYpt-51" value="price: Double&#xa;" style="text;strokeColor=none;fillColor=none;align=left;verticalAlign=top;spacingLeft=4;spacingRight=4;overflow=hidden;rotatable=0;points=[[0,0.5],[1,0.5]];portConstraint=eastwest;" vertex="1" parent="6CTahP-xQMubhzLMzYpt-48">
          <mxGeometry y="78" width="200" height="26" as="geometry" />
        </mxCell>
        <mxCell id="6CTahP-xQMubhzLMzYpt-52" value="availableItemCount" style="text;strokeColor=none;fillColor=none;align=left;verticalAlign=top;spacingLeft=4;spacingRight=4;overflow=hidden;rotatable=0;points=[[0,0.5],[1,0.5]];portConstraint=eastwest;" vertex="1" parent="6CTahP-xQMubhzLMzYpt-48">
          <mxGeometry y="104" width="200" height="26" as="geometry" />
        </mxCell>
        <mxCell id="6CTahP-xQMubhzLMzYpt-53" value="categories: List&lt;ProductCategory&gt;" style="text;strokeColor=none;fillColor=none;align=left;verticalAlign=top;spacingLeft=4;spacingRight=4;overflow=hidden;rotatable=0;points=[[0,0.5],[1,0.5]];portConstraint=eastwest;" vertex="1" parent="6CTahP-xQMubhzLMzYpt-48">
          <mxGeometry y="130" width="200" height="26" as="geometry" />
        </mxCell>
        <mxCell id="6CTahP-xQMubhzLMzYpt-154" value="addReview()" style="text;strokeColor=none;fillColor=none;align=left;verticalAlign=top;spacingLeft=4;spacingRight=4;overflow=hidden;rotatable=0;points=[[0,0.5],[1,0.5]];portConstraint=eastwest;" vertex="1" parent="6CTahP-xQMubhzLMzYpt-48">
          <mxGeometry y="156" width="200" height="26" as="geometry" />
        </mxCell>
        <mxCell id="6CTahP-xQMubhzLMzYpt-62" style="edgeStyle=orthogonalEdgeStyle;rounded=0;orthogonalLoop=1;jettySize=auto;html=1;entryX=0.5;entryY=1;entryDx=0;entryDy=0;startArrow=none;startFill=0;endArrow=block;endFill=0;curved=1;dashed=1;" edge="1" parent="WIyWlLk6GJQsqaUBKTNV-1" source="6CTahP-xQMubhzLMzYpt-54" target="6CTahP-xQMubhzLMzYpt-60">
          <mxGeometry relative="1" as="geometry" />
        </mxCell>
        <mxCell id="6CTahP-xQMubhzLMzYpt-146" style="edgeStyle=entityRelationEdgeStyle;rounded=0;orthogonalLoop=1;jettySize=auto;html=1;entryX=0;entryY=0.5;entryDx=0;entryDy=0;fontSize=13;startArrow=diamondThin;startFill=0;endArrow=none;endFill=0;endSize=12;" edge="1" parent="WIyWlLk6GJQsqaUBKTNV-1" source="6CTahP-xQMubhzLMzYpt-54" target="6CTahP-xQMubhzLMzYpt-49">
          <mxGeometry relative="1" as="geometry" />
        </mxCell>
        <mxCell id="6CTahP-xQMubhzLMzYpt-54" value="Catalog" style="swimlane;fontStyle=0;childLayout=stackLayout;horizontal=1;startSize=26;fillColor=none;horizontalStack=0;resizeParent=1;resizeParentMax=0;resizeLast=0;collapsible=1;marginBottom=0;" vertex="1" parent="WIyWlLk6GJQsqaUBKTNV-1">
          <mxGeometry x="450" y="1000" width="270" height="130" as="geometry" />
        </mxCell>
        <mxCell id="6CTahP-xQMubhzLMzYpt-55" value="lastUpdatedDate()" style="text;strokeColor=none;fillColor=none;align=left;verticalAlign=top;spacingLeft=4;spacingRight=4;overflow=hidden;rotatable=0;points=[[0,0.5],[1,0.5]];portConstraint=eastwest;" vertex="1" parent="6CTahP-xQMubhzLMzYpt-54">
          <mxGeometry y="26" width="270" height="26" as="geometry" />
        </mxCell>
        <mxCell id="6CTahP-xQMubhzLMzYpt-56" value="productNames: Map&lt;String, List&lt;Product&gt;&gt;" style="text;strokeColor=none;fillColor=none;align=left;verticalAlign=top;spacingLeft=4;spacingRight=4;overflow=hidden;rotatable=0;points=[[0,0.5],[1,0.5]];portConstraint=eastwest;" vertex="1" parent="6CTahP-xQMubhzLMzYpt-54">
          <mxGeometry y="52" width="270" height="26" as="geometry" />
        </mxCell>
        <mxCell id="6CTahP-xQMubhzLMzYpt-57" value="productCategories: Map&lt;String, List&lt;Product&gt;&gt;" style="text;strokeColor=none;fillColor=none;align=left;verticalAlign=top;spacingLeft=4;spacingRight=4;overflow=hidden;rotatable=0;points=[[0,0.5],[1,0.5]];portConstraint=eastwest;" vertex="1" parent="6CTahP-xQMubhzLMzYpt-54">
          <mxGeometry y="78" width="270" height="26" as="geometry" />
        </mxCell>
        <mxCell id="6CTahP-xQMubhzLMzYpt-58" value="name: String" style="text;strokeColor=none;fillColor=none;align=left;verticalAlign=top;spacingLeft=4;spacingRight=4;overflow=hidden;rotatable=0;points=[[0,0.5],[1,0.5]];portConstraint=eastwest;" vertex="1" parent="6CTahP-xQMubhzLMzYpt-54">
          <mxGeometry y="104" width="270" height="26" as="geometry" />
        </mxCell>
        <mxCell id="6CTahP-xQMubhzLMzYpt-60" value="&lt;font style=&quot;font-size: 13px&quot;&gt;&lt;b&gt;interface&lt;/b&gt;&lt;/font&gt;&lt;br&gt;Search&lt;br&gt;searchItemByProductName()&lt;br&gt;searchItemByProductCategory()" style="html=1;dropTarget=0;" vertex="1" parent="WIyWlLk6GJQsqaUBKTNV-1">
          <mxGeometry x="630" y="640" width="180" height="90" as="geometry" />
        </mxCell>
        <mxCell id="6CTahP-xQMubhzLMzYpt-61" value="" style="shape=module;jettyWidth=8;jettyHeight=4;" vertex="1" parent="6CTahP-xQMubhzLMzYpt-60">
          <mxGeometry x="1" width="20" height="20" relative="1" as="geometry">
            <mxPoint x="-27" y="7" as="offset" />
          </mxGeometry>
        </mxCell>
        <mxCell id="6CTahP-xQMubhzLMzYpt-65" value="" style="endArrow=none;html=1;endSize=12;startArrow=none;startSize=14;startFill=0;rounded=0;fontSize=13;entryX=0;entryY=0.5;entryDx=0;entryDy=0;exitX=1.002;exitY=0.341;exitDx=0;exitDy=0;exitPerimeter=0;endFill=0;" edge="1" parent="WIyWlLk6GJQsqaUBKTNV-1" source="6CTahP-xQMubhzLMzYpt-40" target="6CTahP-xQMubhzLMzYpt-45">
          <mxGeometry relative="1" as="geometry">
            <mxPoint x="860" y="820" as="sourcePoint" />
            <mxPoint x="1020" y="820" as="targetPoint" />
          </mxGeometry>
        </mxCell>
        <mxCell id="6CTahP-xQMubhzLMzYpt-66" value="1" style="edgeLabel;resizable=0;html=1;align=left;verticalAlign=top;fontSize=13;" connectable="0" vertex="1" parent="6CTahP-xQMubhzLMzYpt-65">
          <mxGeometry x="-1" relative="1" as="geometry" />
        </mxCell>
        <mxCell id="6CTahP-xQMubhzLMzYpt-67" value="*" style="edgeLabel;resizable=0;html=1;align=right;verticalAlign=top;fontSize=13;" connectable="0" vertex="1" parent="6CTahP-xQMubhzLMzYpt-65">
          <mxGeometry x="1" relative="1" as="geometry">
            <mxPoint x="-11" as="offset" />
          </mxGeometry>
        </mxCell>
        <mxCell id="6CTahP-xQMubhzLMzYpt-69" value="" style="endArrow=none;html=1;endSize=12;startArrow=none;startSize=14;startFill=0;edgeStyle=orthogonalEdgeStyle;rounded=0;fontSize=13;entryX=0.508;entryY=1.036;entryDx=0;entryDy=0;entryPerimeter=0;exitX=0.75;exitY=0;exitDx=0;exitDy=0;endFill=0;" edge="1" parent="WIyWlLk6GJQsqaUBKTNV-1" source="6CTahP-xQMubhzLMzYpt-48" target="6CTahP-xQMubhzLMzYpt-47">
          <mxGeometry relative="1" as="geometry">
            <mxPoint x="1160" y="1029.25" as="sourcePoint" />
            <mxPoint x="1202.4399999999998" y="860.0039999999999" as="targetPoint" />
          </mxGeometry>
        </mxCell>
        <mxCell id="6CTahP-xQMubhzLMzYpt-70" value="1" style="edgeLabel;resizable=0;html=1;align=left;verticalAlign=top;fontSize=13;" connectable="0" vertex="1" parent="6CTahP-xQMubhzLMzYpt-69">
          <mxGeometry x="-1" relative="1" as="geometry">
            <mxPoint x="10" y="-40" as="offset" />
          </mxGeometry>
        </mxCell>
        <mxCell id="6CTahP-xQMubhzLMzYpt-71" value="1" style="edgeLabel;resizable=0;html=1;align=right;verticalAlign=top;fontSize=13;" connectable="0" vertex="1" parent="6CTahP-xQMubhzLMzYpt-69">
          <mxGeometry x="1" relative="1" as="geometry" />
        </mxCell>
        <mxCell id="6CTahP-xQMubhzLMzYpt-73" value="ProductCategory" style="swimlane;fontStyle=0;childLayout=stackLayout;horizontal=1;startSize=26;fillColor=none;horizontalStack=0;resizeParent=1;resizeParentMax=0;resizeLast=0;collapsible=1;marginBottom=0;fontSize=13;" vertex="1" parent="WIyWlLk6GJQsqaUBKTNV-1">
          <mxGeometry x="1200" y="1099" width="140" height="78" as="geometry" />
        </mxCell>
        <mxCell id="6CTahP-xQMubhzLMzYpt-74" value="name: String" style="text;strokeColor=none;fillColor=none;align=left;verticalAlign=top;spacingLeft=4;spacingRight=4;overflow=hidden;rotatable=0;points=[[0,0.5],[1,0.5]];portConstraint=eastwest;fontSize=13;" vertex="1" parent="6CTahP-xQMubhzLMzYpt-73">
          <mxGeometry y="26" width="140" height="26" as="geometry" />
        </mxCell>
        <mxCell id="6CTahP-xQMubhzLMzYpt-75" value="description: String" style="text;strokeColor=none;fillColor=none;align=left;verticalAlign=top;spacingLeft=4;spacingRight=4;overflow=hidden;rotatable=0;points=[[0,0.5],[1,0.5]];portConstraint=eastwest;fontSize=13;" vertex="1" parent="6CTahP-xQMubhzLMzYpt-73">
          <mxGeometry y="52" width="140" height="26" as="geometry" />
        </mxCell>
        <mxCell id="6CTahP-xQMubhzLMzYpt-82" style="edgeStyle=orthogonalEdgeStyle;curved=1;rounded=0;orthogonalLoop=1;jettySize=auto;html=1;fontSize=13;startArrow=none;startFill=0;endArrow=block;endFill=0;exitX=1.011;exitY=0.407;exitDx=0;exitDy=0;exitPerimeter=0;" edge="1" parent="WIyWlLk6GJQsqaUBKTNV-1" source="6CTahP-xQMubhzLMzYpt-81" target="6CTahP-xQMubhzLMzYpt-36">
          <mxGeometry relative="1" as="geometry">
            <mxPoint x="890" y="630" as="targetPoint" />
            <Array as="points">
              <mxPoint x="782" y="550" />
              <mxPoint x="993" y="550" />
            </Array>
          </mxGeometry>
        </mxCell>
        <mxCell id="6CTahP-xQMubhzLMzYpt-80" value="Guest" style="swimlane;fontStyle=0;childLayout=stackLayout;horizontal=1;startSize=26;fillColor=none;horizontalStack=0;resizeParent=1;resizeParentMax=0;resizeLast=0;collapsible=1;marginBottom=0;" vertex="1" parent="WIyWlLk6GJQsqaUBKTNV-1">
          <mxGeometry x="640" y="524" width="140" height="78" as="geometry" />
        </mxCell>
        <mxCell id="6CTahP-xQMubhzLMzYpt-81" value="ipAddress: String" style="text;strokeColor=none;fillColor=none;align=left;verticalAlign=top;spacingLeft=4;spacingRight=4;overflow=hidden;rotatable=0;points=[[0,0.5],[1,0.5]];portConstraint=eastwest;" vertex="1" parent="6CTahP-xQMubhzLMzYpt-80">
          <mxGeometry y="26" width="140" height="26" as="geometry" />
        </mxCell>
        <mxCell id="6CTahP-xQMubhzLMzYpt-153" value="register()" style="text;strokeColor=none;fillColor=none;align=left;verticalAlign=top;spacingLeft=4;spacingRight=4;overflow=hidden;rotatable=0;points=[[0,0.5],[1,0.5]];portConstraint=eastwest;" vertex="1" parent="6CTahP-xQMubhzLMzYpt-80">
          <mxGeometry y="52" width="140" height="26" as="geometry" />
        </mxCell>
        <mxCell id="6CTahP-xQMubhzLMzYpt-83" value="Order" style="swimlane;fontStyle=0;childLayout=stackLayout;horizontal=1;startSize=26;fillColor=none;horizontalStack=0;resizeParent=1;resizeParentMax=0;resizeLast=0;collapsible=1;marginBottom=0;" vertex="1" parent="WIyWlLk6GJQsqaUBKTNV-1">
          <mxGeometry x="1310" y="760" width="140" height="130" as="geometry" />
        </mxCell>
        <mxCell id="6CTahP-xQMubhzLMzYpt-84" value="id: String" style="text;strokeColor=none;fillColor=none;align=left;verticalAlign=top;spacingLeft=4;spacingRight=4;overflow=hidden;rotatable=0;points=[[0,0.5],[1,0.5]];portConstraint=eastwest;" vertex="1" parent="6CTahP-xQMubhzLMzYpt-83">
          <mxGeometry y="26" width="140" height="26" as="geometry" />
        </mxCell>
        <mxCell id="6CTahP-xQMubhzLMzYpt-85" value="status: OrderStatus" style="text;strokeColor=none;fillColor=none;align=left;verticalAlign=top;spacingLeft=4;spacingRight=4;overflow=hidden;rotatable=0;points=[[0,0.5],[1,0.5]];portConstraint=eastwest;" vertex="1" parent="6CTahP-xQMubhzLMzYpt-83">
          <mxGeometry y="52" width="140" height="26" as="geometry" />
        </mxCell>
        <mxCell id="6CTahP-xQMubhzLMzYpt-86" value="orderDate: Date" style="text;strokeColor=none;fillColor=none;align=left;verticalAlign=top;spacingLeft=4;spacingRight=4;overflow=hidden;rotatable=0;points=[[0,0.5],[1,0.5]];portConstraint=eastwest;" vertex="1" parent="6CTahP-xQMubhzLMzYpt-83">
          <mxGeometry y="78" width="140" height="26" as="geometry" />
        </mxCell>
        <mxCell id="6CTahP-xQMubhzLMzYpt-87" value="sendForShipment()" style="text;strokeColor=none;fillColor=none;align=left;verticalAlign=top;spacingLeft=4;spacingRight=4;overflow=hidden;rotatable=0;points=[[0,0.5],[1,0.5]];portConstraint=eastwest;" vertex="1" parent="6CTahP-xQMubhzLMzYpt-83">
          <mxGeometry y="104" width="140" height="26" as="geometry" />
        </mxCell>
        <mxCell id="6CTahP-xQMubhzLMzYpt-91" value="" style="endArrow=none;html=1;endSize=12;startArrow=diamondThin;startSize=14;startFill=1;edgeStyle=orthogonalEdgeStyle;rounded=0;fontSize=13;exitX=0.796;exitY=1.077;exitDx=0;exitDy=0;entryX=0.538;entryY=0.003;entryDx=0;entryDy=0;entryPerimeter=0;endFill=0;exitPerimeter=0;" edge="1" parent="WIyWlLk6GJQsqaUBKTNV-1" source="6CTahP-xQMubhzLMzYpt-25" target="6CTahP-xQMubhzLMzYpt-83">
          <mxGeometry relative="1" as="geometry">
            <mxPoint x="1180" y="670" as="sourcePoint" />
            <mxPoint x="1340" y="670" as="targetPoint" />
            <Array as="points">
              <mxPoint x="1011" y="636" />
              <mxPoint x="1385" y="636" />
            </Array>
          </mxGeometry>
        </mxCell>
        <mxCell id="6CTahP-xQMubhzLMzYpt-92" value="1" style="edgeLabel;resizable=0;html=1;align=left;verticalAlign=top;fontSize=13;" connectable="0" vertex="1" parent="6CTahP-xQMubhzLMzYpt-91">
          <mxGeometry x="-1" relative="1" as="geometry">
            <mxPoint x="9" as="offset" />
          </mxGeometry>
        </mxCell>
        <mxCell id="6CTahP-xQMubhzLMzYpt-93" value="*" style="edgeLabel;resizable=0;html=1;align=right;verticalAlign=top;fontSize=13;" connectable="0" vertex="1" parent="6CTahP-xQMubhzLMzYpt-91">
          <mxGeometry x="1" relative="1" as="geometry">
            <mxPoint x="-6" y="-31" as="offset" />
          </mxGeometry>
        </mxCell>
        <mxCell id="6CTahP-xQMubhzLMzYpt-94" value="" style="endArrow=none;html=1;endSize=12;startArrow=none;startSize=14;startFill=0;rounded=0;fontSize=13;exitX=1.005;exitY=0.653;exitDx=0;exitDy=0;exitPerimeter=0;endFill=0;" edge="1" parent="WIyWlLk6GJQsqaUBKTNV-1" source="6CTahP-xQMubhzLMzYpt-45" target="6CTahP-xQMubhzLMzYpt-83">
          <mxGeometry relative="1" as="geometry">
            <mxPoint x="1211.22" y="824.996" as="sourcePoint" />
            <mxPoint x="1280" y="800" as="targetPoint" />
          </mxGeometry>
        </mxCell>
        <mxCell id="6CTahP-xQMubhzLMzYpt-95" value="*" style="edgeLabel;resizable=0;html=1;align=left;verticalAlign=top;fontSize=13;" connectable="0" vertex="1" parent="6CTahP-xQMubhzLMzYpt-94">
          <mxGeometry x="-1" relative="1" as="geometry" />
        </mxCell>
        <mxCell id="6CTahP-xQMubhzLMzYpt-96" value="1" style="edgeLabel;resizable=0;html=1;align=right;verticalAlign=top;fontSize=13;" connectable="0" vertex="1" parent="6CTahP-xQMubhzLMzYpt-94">
          <mxGeometry x="1" relative="1" as="geometry">
            <mxPoint x="-11" as="offset" />
          </mxGeometry>
        </mxCell>
        <mxCell id="6CTahP-xQMubhzLMzYpt-99" value="Payment" style="swimlane;fontStyle=0;childLayout=stackLayout;horizontal=1;startSize=26;fillColor=none;horizontalStack=0;resizeParent=1;resizeParentMax=0;resizeLast=0;collapsible=1;marginBottom=0;" vertex="1" parent="WIyWlLk6GJQsqaUBKTNV-1">
          <mxGeometry x="1490.76" y="600" width="140" height="130" as="geometry" />
        </mxCell>
        <mxCell id="6CTahP-xQMubhzLMzYpt-100" value="status: PaymentStatus" style="text;strokeColor=none;fillColor=none;align=left;verticalAlign=top;spacingLeft=4;spacingRight=4;overflow=hidden;rotatable=0;points=[[0,0.5],[1,0.5]];portConstraint=eastwest;" vertex="1" parent="6CTahP-xQMubhzLMzYpt-99">
          <mxGeometry y="26" width="140" height="26" as="geometry" />
        </mxCell>
        <mxCell id="6CTahP-xQMubhzLMzYpt-101" value="amount: Double" style="text;strokeColor=none;fillColor=none;align=left;verticalAlign=top;spacingLeft=4;spacingRight=4;overflow=hidden;rotatable=0;points=[[0,0.5],[1,0.5]];portConstraint=eastwest;" vertex="1" parent="6CTahP-xQMubhzLMzYpt-99">
          <mxGeometry y="52" width="140" height="26" as="geometry" />
        </mxCell>
        <mxCell id="6CTahP-xQMubhzLMzYpt-102" value="currency: String" style="text;strokeColor=none;fillColor=none;align=left;verticalAlign=top;spacingLeft=4;spacingRight=4;overflow=hidden;rotatable=0;points=[[0,0.5],[1,0.5]];portConstraint=eastwest;" vertex="1" parent="6CTahP-xQMubhzLMzYpt-99">
          <mxGeometry y="78" width="140" height="26" as="geometry" />
        </mxCell>
        <mxCell id="6CTahP-xQMubhzLMzYpt-103" value="processPayment()" style="text;strokeColor=none;fillColor=none;align=left;verticalAlign=top;spacingLeft=4;spacingRight=4;overflow=hidden;rotatable=0;points=[[0,0.5],[1,0.5]];portConstraint=eastwest;" vertex="1" parent="6CTahP-xQMubhzLMzYpt-99">
          <mxGeometry y="104" width="140" height="26" as="geometry" />
        </mxCell>
        <mxCell id="6CTahP-xQMubhzLMzYpt-105" value="" style="endArrow=none;html=1;endSize=12;startArrow=none;startSize=14;startFill=0;edgeStyle=orthogonalEdgeStyle;rounded=0;fontSize=13;exitX=1;exitY=0.5;exitDx=0;exitDy=0;entryX=0.751;entryY=0.973;entryDx=0;entryDy=0;entryPerimeter=0;endFill=0;" edge="1" parent="WIyWlLk6GJQsqaUBKTNV-1" source="6CTahP-xQMubhzLMzYpt-85" target="6CTahP-xQMubhzLMzYpt-103">
          <mxGeometry relative="1" as="geometry">
            <mxPoint x="1470.76" y="820" as="sourcePoint" />
            <mxPoint x="1630.76" y="820" as="targetPoint" />
          </mxGeometry>
        </mxCell>
        <mxCell id="6CTahP-xQMubhzLMzYpt-106" value="1" style="edgeLabel;resizable=0;html=1;align=left;verticalAlign=top;fontSize=13;" connectable="0" vertex="1" parent="6CTahP-xQMubhzLMzYpt-105">
          <mxGeometry x="-1" relative="1" as="geometry" />
        </mxCell>
        <mxCell id="6CTahP-xQMubhzLMzYpt-107" value="1" style="edgeLabel;resizable=0;html=1;align=right;verticalAlign=top;fontSize=13;" connectable="0" vertex="1" parent="6CTahP-xQMubhzLMzYpt-105">
          <mxGeometry x="1" relative="1" as="geometry">
            <mxPoint x="-6" as="offset" />
          </mxGeometry>
        </mxCell>
        <mxCell id="6CTahP-xQMubhzLMzYpt-112" style="edgeStyle=entityRelationEdgeStyle;rounded=0;orthogonalLoop=1;jettySize=auto;html=1;fontSize=13;startArrow=none;startFill=0;endArrow=none;endFill=0;endSize=12;" edge="1" parent="WIyWlLk6GJQsqaUBKTNV-1" source="6CTahP-xQMubhzLMzYpt-108" target="6CTahP-xQMubhzLMzYpt-99">
          <mxGeometry relative="1" as="geometry">
            <mxPoint x="1570" y="470" as="targetPoint" />
          </mxGeometry>
        </mxCell>
        <mxCell id="6CTahP-xQMubhzLMzYpt-108" value="ElectronicBankTransaction&lt;br&gt;uses info from account" style="html=1;dropTarget=0;fontSize=13;" vertex="1" parent="WIyWlLk6GJQsqaUBKTNV-1">
          <mxGeometry x="1260" y="310" width="160" height="74" as="geometry" />
        </mxCell>
        <mxCell id="6CTahP-xQMubhzLMzYpt-109" value="" style="shape=module;jettyWidth=8;jettyHeight=4;fontSize=13;" vertex="1" parent="6CTahP-xQMubhzLMzYpt-108">
          <mxGeometry x="1" width="20" height="20" relative="1" as="geometry">
            <mxPoint x="-27" y="7" as="offset" />
          </mxGeometry>
        </mxCell>
        <mxCell id="6CTahP-xQMubhzLMzYpt-113" style="edgeStyle=entityRelationEdgeStyle;rounded=0;orthogonalLoop=1;jettySize=auto;html=1;fontSize=13;startArrow=none;startFill=0;endArrow=none;endFill=0;endSize=12;" edge="1" parent="WIyWlLk6GJQsqaUBKTNV-1" source="6CTahP-xQMubhzLMzYpt-110" target="6CTahP-xQMubhzLMzYpt-99">
          <mxGeometry relative="1" as="geometry">
            <mxPoint x="1596" y="600" as="targetPoint" />
          </mxGeometry>
        </mxCell>
        <mxCell id="6CTahP-xQMubhzLMzYpt-110" value="CreditCardTransaction&lt;br&gt;uses info from account" style="html=1;dropTarget=0;fontSize=13;" vertex="1" parent="WIyWlLk6GJQsqaUBKTNV-1">
          <mxGeometry x="1470" y="310" width="140" height="70" as="geometry" />
        </mxCell>
        <mxCell id="6CTahP-xQMubhzLMzYpt-111" value="" style="shape=module;jettyWidth=8;jettyHeight=4;fontSize=13;" vertex="1" parent="6CTahP-xQMubhzLMzYpt-110">
          <mxGeometry x="1" width="20" height="20" relative="1" as="geometry">
            <mxPoint x="-27" y="7" as="offset" />
          </mxGeometry>
        </mxCell>
        <mxCell id="6CTahP-xQMubhzLMzYpt-123" style="edgeStyle=entityRelationEdgeStyle;rounded=0;orthogonalLoop=1;jettySize=auto;html=1;fontSize=13;startArrow=none;startFill=0;endArrow=none;endFill=0;endSize=12;" edge="1" parent="WIyWlLk6GJQsqaUBKTNV-1" source="6CTahP-xQMubhzLMzYpt-116" target="6CTahP-xQMubhzLMzYpt-87">
          <mxGeometry relative="1" as="geometry" />
        </mxCell>
        <mxCell id="6CTahP-xQMubhzLMzYpt-116" value="Shipment" style="swimlane;fontStyle=0;childLayout=stackLayout;horizontal=1;startSize=26;fillColor=none;horizontalStack=0;resizeParent=1;resizeParentMax=0;resizeLast=0;collapsible=1;marginBottom=0;" vertex="1" parent="WIyWlLk6GJQsqaUBKTNV-1">
          <mxGeometry x="1310" y="920" width="140" height="78" as="geometry" />
        </mxCell>
        <mxCell id="6CTahP-xQMubhzLMzYpt-117" value="shipmentDate: Date" style="text;strokeColor=none;fillColor=none;align=left;verticalAlign=top;spacingLeft=4;spacingRight=4;overflow=hidden;rotatable=0;points=[[0,0.5],[1,0.5]];portConstraint=eastwest;" vertex="1" parent="6CTahP-xQMubhzLMzYpt-116">
          <mxGeometry y="26" width="140" height="26" as="geometry" />
        </mxCell>
        <mxCell id="6CTahP-xQMubhzLMzYpt-118" value="estimatedArrival: Date" style="text;strokeColor=none;fillColor=none;align=left;verticalAlign=top;spacingLeft=4;spacingRight=4;overflow=hidden;rotatable=0;points=[[0,0.5],[1,0.5]];portConstraint=eastwest;" vertex="1" parent="6CTahP-xQMubhzLMzYpt-116">
          <mxGeometry y="52" width="140" height="26" as="geometry" />
        </mxCell>
        <mxCell id="6CTahP-xQMubhzLMzYpt-127" style="edgeStyle=entityRelationEdgeStyle;rounded=0;orthogonalLoop=1;jettySize=auto;html=1;entryX=0.998;entryY=0.153;entryDx=0;entryDy=0;entryPerimeter=0;fontSize=13;startArrow=none;startFill=0;endArrow=none;endFill=0;endSize=12;" edge="1" parent="WIyWlLk6GJQsqaUBKTNV-1" source="6CTahP-xQMubhzLMzYpt-124" target="6CTahP-xQMubhzLMzYpt-83">
          <mxGeometry relative="1" as="geometry" />
        </mxCell>
        <mxCell id="6CTahP-xQMubhzLMzYpt-124" value="OrderLog" style="swimlane;fontStyle=0;childLayout=stackLayout;horizontal=1;startSize=26;fillColor=none;horizontalStack=0;resizeParent=1;resizeParentMax=0;resizeLast=0;collapsible=1;marginBottom=0;" vertex="1" parent="WIyWlLk6GJQsqaUBKTNV-1">
          <mxGeometry x="1610" y="860" width="140" height="78" as="geometry" />
        </mxCell>
        <mxCell id="6CTahP-xQMubhzLMzYpt-125" value="createdDate: Date" style="text;strokeColor=none;fillColor=none;align=left;verticalAlign=top;spacingLeft=4;spacingRight=4;overflow=hidden;rotatable=0;points=[[0,0.5],[1,0.5]];portConstraint=eastwest;" vertex="1" parent="6CTahP-xQMubhzLMzYpt-124">
          <mxGeometry y="26" width="140" height="26" as="geometry" />
        </mxCell>
        <mxCell id="6CTahP-xQMubhzLMzYpt-126" value="status: OrderStatus" style="text;strokeColor=none;fillColor=none;align=left;verticalAlign=top;spacingLeft=4;spacingRight=4;overflow=hidden;rotatable=0;points=[[0,0.5],[1,0.5]];portConstraint=eastwest;" vertex="1" parent="6CTahP-xQMubhzLMzYpt-124">
          <mxGeometry y="52" width="140" height="26" as="geometry" />
        </mxCell>
        <mxCell id="6CTahP-xQMubhzLMzYpt-131" style="edgeStyle=entityRelationEdgeStyle;rounded=0;orthogonalLoop=1;jettySize=auto;html=1;fontSize=13;startArrow=none;startFill=0;endArrow=none;endFill=0;endSize=12;" edge="1" parent="WIyWlLk6GJQsqaUBKTNV-1" source="6CTahP-xQMubhzLMzYpt-128" target="6CTahP-xQMubhzLMzYpt-118">
          <mxGeometry relative="1" as="geometry" />
        </mxCell>
        <mxCell id="6CTahP-xQMubhzLMzYpt-137" style="edgeStyle=entityRelationEdgeStyle;rounded=0;orthogonalLoop=1;jettySize=auto;html=1;entryX=0;entryY=0.5;entryDx=0;entryDy=0;fontSize=13;startArrow=none;startFill=0;endArrow=none;endFill=0;endSize=12;" edge="1" parent="WIyWlLk6GJQsqaUBKTNV-1" source="6CTahP-xQMubhzLMzYpt-128" target="6CTahP-xQMubhzLMzYpt-134">
          <mxGeometry relative="1" as="geometry" />
        </mxCell>
        <mxCell id="6CTahP-xQMubhzLMzYpt-128" value="ShipmentLog" style="swimlane;fontStyle=0;childLayout=stackLayout;horizontal=1;startSize=26;fillColor=none;horizontalStack=0;resizeParent=1;resizeParentMax=0;resizeLast=0;collapsible=1;marginBottom=0;" vertex="1" parent="WIyWlLk6GJQsqaUBKTNV-1">
          <mxGeometry x="1610" y="1026" width="140" height="78" as="geometry" />
        </mxCell>
        <mxCell id="6CTahP-xQMubhzLMzYpt-129" value="createdDate: Date" style="text;strokeColor=none;fillColor=none;align=left;verticalAlign=top;spacingLeft=4;spacingRight=4;overflow=hidden;rotatable=0;points=[[0,0.5],[1,0.5]];portConstraint=eastwest;" vertex="1" parent="6CTahP-xQMubhzLMzYpt-128">
          <mxGeometry y="26" width="140" height="26" as="geometry" />
        </mxCell>
        <mxCell id="6CTahP-xQMubhzLMzYpt-130" value="status: ShipmentStatus" style="text;strokeColor=none;fillColor=none;align=left;verticalAlign=top;spacingLeft=4;spacingRight=4;overflow=hidden;rotatable=0;points=[[0,0.5],[1,0.5]];portConstraint=eastwest;" vertex="1" parent="6CTahP-xQMubhzLMzYpt-128">
          <mxGeometry y="52" width="140" height="26" as="geometry" />
        </mxCell>
        <mxCell id="6CTahP-xQMubhzLMzYpt-132" value="Notification" style="swimlane;fontStyle=0;childLayout=stackLayout;horizontal=1;startSize=26;fillColor=none;horizontalStack=0;resizeParent=1;resizeParentMax=0;resizeLast=0;collapsible=1;marginBottom=0;" vertex="1" parent="WIyWlLk6GJQsqaUBKTNV-1">
          <mxGeometry x="1990" y="938" width="140" height="104" as="geometry" />
        </mxCell>
        <mxCell id="6CTahP-xQMubhzLMzYpt-133" value="id: Long" style="text;strokeColor=none;fillColor=none;align=left;verticalAlign=top;spacingLeft=4;spacingRight=4;overflow=hidden;rotatable=0;points=[[0,0.5],[1,0.5]];portConstraint=eastwest;" vertex="1" parent="6CTahP-xQMubhzLMzYpt-132">
          <mxGeometry y="26" width="140" height="26" as="geometry" />
        </mxCell>
        <mxCell id="6CTahP-xQMubhzLMzYpt-134" value="createdDate: Date" style="text;strokeColor=none;fillColor=none;align=left;verticalAlign=top;spacingLeft=4;spacingRight=4;overflow=hidden;rotatable=0;points=[[0,0.5],[1,0.5]];portConstraint=eastwest;" vertex="1" parent="6CTahP-xQMubhzLMzYpt-132">
          <mxGeometry y="52" width="140" height="26" as="geometry" />
        </mxCell>
        <mxCell id="6CTahP-xQMubhzLMzYpt-135" value="content: String" style="text;strokeColor=none;fillColor=none;align=left;verticalAlign=top;spacingLeft=4;spacingRight=4;overflow=hidden;rotatable=0;points=[[0,0.5],[1,0.5]];portConstraint=eastwest;" vertex="1" parent="6CTahP-xQMubhzLMzYpt-132">
          <mxGeometry y="78" width="140" height="26" as="geometry" />
        </mxCell>
        <mxCell id="6CTahP-xQMubhzLMzYpt-136" style="edgeStyle=entityRelationEdgeStyle;rounded=0;orthogonalLoop=1;jettySize=auto;html=1;entryX=0.009;entryY=0.187;entryDx=0;entryDy=0;entryPerimeter=0;fontSize=13;startArrow=none;startFill=0;endArrow=none;endFill=0;endSize=12;" edge="1" parent="WIyWlLk6GJQsqaUBKTNV-1" source="6CTahP-xQMubhzLMzYpt-125" target="6CTahP-xQMubhzLMzYpt-132">
          <mxGeometry relative="1" as="geometry" />
        </mxCell>
        <mxCell id="6CTahP-xQMubhzLMzYpt-138" value="SmsNotification" style="swimlane;fontStyle=0;childLayout=stackLayout;horizontal=1;startSize=26;fillColor=none;horizontalStack=0;resizeParent=1;resizeParentMax=0;resizeLast=0;collapsible=1;marginBottom=0;" vertex="1" parent="WIyWlLk6GJQsqaUBKTNV-1">
          <mxGeometry x="2240" y="860" width="140" height="52" as="geometry" />
        </mxCell>
        <mxCell id="6CTahP-xQMubhzLMzYpt-139" value="phone: String" style="text;strokeColor=none;fillColor=none;align=left;verticalAlign=top;spacingLeft=4;spacingRight=4;overflow=hidden;rotatable=0;points=[[0,0.5],[1,0.5]];portConstraint=eastwest;" vertex="1" parent="6CTahP-xQMubhzLMzYpt-138">
          <mxGeometry y="26" width="140" height="26" as="geometry" />
        </mxCell>
        <mxCell id="6CTahP-xQMubhzLMzYpt-145" style="edgeStyle=entityRelationEdgeStyle;rounded=0;orthogonalLoop=1;jettySize=auto;html=1;entryX=1;entryY=0.5;entryDx=0;entryDy=0;fontSize=13;startArrow=none;startFill=0;endArrow=none;endFill=0;endSize=12;" edge="1" parent="WIyWlLk6GJQsqaUBKTNV-1" source="6CTahP-xQMubhzLMzYpt-142" target="6CTahP-xQMubhzLMzYpt-133">
          <mxGeometry relative="1" as="geometry" />
        </mxCell>
        <mxCell id="6CTahP-xQMubhzLMzYpt-142" value="EmailNotification" style="swimlane;fontStyle=0;childLayout=stackLayout;horizontal=1;startSize=26;fillColor=none;horizontalStack=0;resizeParent=1;resizeParentMax=0;resizeLast=0;collapsible=1;marginBottom=0;" vertex="1" parent="WIyWlLk6GJQsqaUBKTNV-1">
          <mxGeometry x="2240" y="974" width="140" height="52" as="geometry" />
        </mxCell>
        <mxCell id="6CTahP-xQMubhzLMzYpt-143" value="email: String" style="text;strokeColor=none;fillColor=none;align=left;verticalAlign=top;spacingLeft=4;spacingRight=4;overflow=hidden;rotatable=0;points=[[0,0.5],[1,0.5]];portConstraint=eastwest;" vertex="1" parent="6CTahP-xQMubhzLMzYpt-142">
          <mxGeometry y="26" width="140" height="26" as="geometry" />
        </mxCell>
        <mxCell id="6CTahP-xQMubhzLMzYpt-144" style="edgeStyle=entityRelationEdgeStyle;rounded=0;orthogonalLoop=1;jettySize=auto;html=1;entryX=0;entryY=0.5;entryDx=0;entryDy=0;fontSize=13;startArrow=none;startFill=0;endArrow=none;endFill=0;endSize=12;" edge="1" parent="WIyWlLk6GJQsqaUBKTNV-1" source="6CTahP-xQMubhzLMzYpt-133" target="6CTahP-xQMubhzLMzYpt-138">
          <mxGeometry relative="1" as="geometry" />
        </mxCell>
        <mxCell id="6CTahP-xQMubhzLMzYpt-148" value="Application&lt;br&gt;DI container" style="html=1;fontSize=13;" vertex="1" parent="WIyWlLk6GJQsqaUBKTNV-1">
          <mxGeometry x="160" y="520" width="110" height="50" as="geometry" />
        </mxCell>
        <mxCell id="6CTahP-xQMubhzLMzYpt-149" value="&lt;font style=&quot;font-size: 13px&quot;&gt;&lt;b&gt;interface&lt;/b&gt;&lt;/font&gt;&lt;br&gt;NewProduct&lt;br&gt;addProduct()" style="html=1;dropTarget=0;" vertex="1" parent="WIyWlLk6GJQsqaUBKTNV-1">
          <mxGeometry x="414" y="370" width="180" height="90" as="geometry" />
        </mxCell>
        <mxCell id="6CTahP-xQMubhzLMzYpt-150" value="" style="shape=module;jettyWidth=8;jettyHeight=4;" vertex="1" parent="6CTahP-xQMubhzLMzYpt-149">
          <mxGeometry x="1" width="20" height="20" relative="1" as="geometry">
            <mxPoint x="-27" y="7" as="offset" />
          </mxGeometry>
        </mxCell>
        <mxCell id="6CTahP-xQMubhzLMzYpt-151" style="edgeStyle=orthogonalEdgeStyle;rounded=0;orthogonalLoop=1;jettySize=auto;html=1;entryX=0.25;entryY=1;entryDx=0;entryDy=0;startArrow=none;startFill=0;endArrow=block;endFill=0;curved=1;dashed=1;" edge="1" parent="WIyWlLk6GJQsqaUBKTNV-1" source="6CTahP-xQMubhzLMzYpt-54" target="6CTahP-xQMubhzLMzYpt-149">
          <mxGeometry relative="1" as="geometry">
            <mxPoint x="520" y="990" as="sourcePoint" />
            <mxPoint x="559" y="730" as="targetPoint" />
          </mxGeometry>
        </mxCell>
        <mxCell id="6CTahP-xQMubhzLMzYpt-152" style="edgeStyle=entityRelationEdgeStyle;rounded=0;orthogonalLoop=1;jettySize=auto;html=1;fontSize=13;startArrow=none;startFill=0;endArrow=none;endFill=0;endSize=12;" edge="1" parent="WIyWlLk6GJQsqaUBKTNV-1" source="6CTahP-xQMubhzLMzYpt-25" target="6CTahP-xQMubhzLMzYpt-149">
          <mxGeometry relative="1" as="geometry" />
        </mxCell>
      </root>
    </mxGraphModel>
  </diagram>
</mxfile>
